<?xml version="1.0" encoding="UTF-8" standalone="no"?>
<svg width="26px" height="25px" viewBox="0 0 26 25" version="1.1" xmlns="http://www.w3.org/2000/svg" xmlns:xlink="http://www.w3.org/1999/xlink">
    <!-- Generator: Sketch 39.1 (31720) - http://www.bohemiancoding.com/sketch -->
    <title>Shape</title>
    <desc>Created with Sketch.</desc>
    <defs></defs>
    <g id="Page-1" stroke="none" stroke-width="1" fill="none" fill-rule="evenodd">
        <g id="Artboard" transform="translate(-287.000000, -521.000000)" fill="#2C97DE">
            <g id="V3" transform="translate(275.000000, 508.000000)">
                <path d="M12,23.2022992 C12,27.8000459 14.42125,31.7098086 18.54875,32.9683159 C18.51625,33.1193368 18.5,33.2535775 18.5,33.4045984 L18.5,36.9955393 C18.5,38.2037063 19.32875,38.2876068 20.17375,37.4318218 L25,33.1361169 L27.9575,33.1361169 C33.49875,33.1361169 38,28.5719304 38,22.9338177 C38,17.2957049 33.49875,13 27.9575,13 L22.0425,13 C16.50125,13 12,17.5641865 12,23.2022992 L12,23.2022992 Z M18.5,19.712039 L31.5,19.712039 L31.5,21.3900487 L18.5,21.3900487 L18.5,19.712039 L18.5,19.712039 Z M18.5,23.0680584 L31.5,23.0680584 L31.5,24.7460682 L18.5,24.7460682 L18.5,23.0680584 L18.5,23.0680584 Z M18.5,26.4240779 L26.625,26.4240779 L26.625,28.1020876 L18.5,28.1020876 L18.5,26.4240779 L18.5,26.4240779 Z" id="Shape"></path>
            </g>
        </g>
    </g>
</svg>